<?xml version="1.0" encoding="UTF-8" standalone="no"?>
<svg
   width="102mm"
   height="101.99999999999999mm"
   viewBox="-5 -91.99999999999999 102 101.99999999999999"
   version="1.1"
   id="svg8"
   sodipodi:docname="arduino-stand-cut-kolab.svg"
   inkscape:version="1.1 (c68e22c387, 2021-05-23)"
   xmlns:inkscape="http://www.inkscape.org/namespaces/inkscape"
   xmlns:sodipodi="http://sodipodi.sourceforge.net/DTD/sodipodi-0.dtd"
   xmlns="http://www.w3.org/2000/svg"
   xmlns:svg="http://www.w3.org/2000/svg"
   xmlns:rdf="http://www.w3.org/1999/02/22-rdf-syntax-ns#"
   xmlns:cc="http://creativecommons.org/ns#"
   xmlns:dc="http://purl.org/dc/elements/1.1/">
  <defs
     id="defs12">
    <pattern
       id="EMFhbasepattern"
       patternUnits="userSpaceOnUse"
       width="6"
       height="6"
       x="0"
       y="0" />
  </defs>
  <sodipodi:namedview
     id="namedview10"
     pagecolor="#ffffff"
     bordercolor="#666666"
     borderopacity="1.0"
     inkscape:pageshadow="2"
     inkscape:pageopacity="0.0"
     inkscape:pagecheckerboard="0"
     inkscape:document-units="mm"
     showgrid="false"
     inkscape:zoom="1.9532475"
     inkscape:cx="79.611005"
     inkscape:cy="178.16482"
     inkscape:window-width="3000"
     inkscape:window-height="1906"
     inkscape:window-x="-11"
     inkscape:window-y="-11"
     inkscape:window-maximized="1"
     inkscape:current-layer="svg8" />
  <title
     id="title2">svgOutput</title>
  <desc
     id="desc4">made with tinkercad</desc>
  <path
     d="M 44.99700164794922 -21.400999069213864 L 65.53600311279297 -21.400999069213864 L 90.00299835205078 -21.400999069213864 L 90.00299835205078 -25.996000289916985 L 65.53600311279297 -25.996000289916985 L 44.99700164794922 -25.996000289916985 L 14.404999732971191 -25.996000289916985 L 12.973999977111816 -26.024999618530266 L 11.734000205993652 -26.111999511718743 L 10.6850004196167 -26.256999969482415 L 9.826000213623047 -26.45999908447265 L 9.157999992370605 -26.72100067138671 L 8.680999755859375 -27.040000915527337 L 8.395000457763672 -27.41600036621093 L 8.300000190734863 -27.850999832153313 L 8.300000190734863 -58.14899826049803 L 8.395000457763672 -58.58399963378905 L 8.680999755859375 -58.960998535156236 L 9.157999992370605 -59.27999877929686 L 9.826000213623047 -59.54100036621092 L 10.6850004196167 -59.74399948120116 L 11.734000205993652 -59.88899993896483 L 12.973999977111816 -59.97499847412108 L 14.404999732971191 -60.00500106811522 L 65.53600311279297 -60.00500106811522 L 90.00299835205078 -60.00500106811522 L 90.00299835205078 -62.27500152587889 L 89.927001953125 -62.914001464843736 L 89.7020034790039 -63.46799850463866 L 89.3270034790039 -63.93700027465819 L 88.802001953125 -64.3209991455078 L 88.12699890136719 -64.61900329589842 L 87.302001953125 -64.83200073242186 L 86.3270034790039 -64.95999908447264 L 85.2020034790039 -65.00299835205077 L 65.53600311279297 -65.00299835205077 L 8.300000190734863 -65.00299835205077 L 6.797999858856201 -65.00299835205077 L 5.672999858856201 -64.95999908447264 L 4.697999954223633 -64.83200073242186 L 3.872999906539917 -64.61900329589842 L 3.197999954223633 -64.3209991455078 L 2.6730000972747803 -63.93700027465819 L 2.2980000972747803 -63.46799850463866 L 2.072999954223633 -62.914001464843736 L 1.9980000257492065 -62.27500152587889 L 1.9980000257492065 -17.725000381469723 L 2.072999954223633 -17.08600044250488 L 2.2980000972747803 -16.53199958801269 L 2.6730000972747803 -16.062999725341793 L 3.197999954223633 -15.678999900817868 L 3.872999906539917 -15.380999565124508 L 4.697999954223633 -15.168000221252438 L 5.672999858856201 -15.039999961853024 L 6.797999858856201 -14.998000144958493 L 8.300000190734863 -14.998000144958493 L 44.99700164794922 -14.998000144958493 L 45.99800109863281 -14.998000144958493 L 65.53600311279297 -14.998000144958493 L 85.2020034790039 -14.998000144958493 L 86.3270034790039 -15.039999961853024 L 87.302001953125 -15.168000221252438 L 88.12699890136719 -15.380999565124508 L 88.802001953125 -15.678999900817868 L 89.3270034790039 -16.062999725341793 L 89.7020034790039 -16.53199958801269 L 89.927001953125 -17.08600044250488 L 90.00299835205078 -17.725000381469723 L 90.00299835205078 -18.995000839233395 L 65.53600311279297 -18.995000839233395 L 44.99700164794922 -18.995000839233395 L 44.99700164794922 -21.400999069213864 M 95.91500091552734 -86.82399749755858 L 96 -85.5449981689453 L 96 -14.998000144958493 L 96 -10.420999526977537 L 45.99800109863281 -10.420999526977537 L 45.99800109863281 -8.015999794006346 L 96 -8.015999794006346 L 96 1.1102230246251565e-16 L 96 3.5450000762939444 L 95.91500091552734 4.823999881744384 L 95.65899658203125 5.932000160217284 L 95.23300170898438 6.868999958038328 L 94.63600158691406 7.636000156402586 L 93.86900329589844 8.23299980163574 L 92.93199920654297 8.659000396728514 L 91.8239974975586 8.914999961853026 L 90.54499816894531 8.999999999999998 L 1.4550000429153442 8.999999999999998 L 0.17599999904632568 8.914999961853026 L -0.9319999814033508 8.659000396728514 L -1.86899995803833 8.23299980163574 L -2.635999917984009 7.636000156402586 L -3.2330000400543213 6.868999958038328 L -3.6589999198913574 5.932000160217284 L -3.9149999618530273 4.823999881744384 L -4 3.5450000762939444 L -4 1.1102230246251565e-16 L -4 -85.5449981689453 L -3.9149999618530273 -86.82399749755858 L -3.6589999198913574 -87.93199920654295 L -3.2330000400543213 -88.86900329589842 L -2.635999917984009 -89.63600158691405 L -1.86899995803833 -90.23300170898436 L -0.9319999814033508 -90.65899658203124 L 0.17599999904632568 -90.91500091552733 L 1.4550000429153442 -90.99999999999999 L 1.9980000257492065 -90.99999999999999 L 90.00299835205078 -90.99999999999999 L 90.54499816894531 -90.99999999999999 L 91.8239974975586 -90.91500091552733 L 92.93199920654297 -90.65899658203124 L 93.86900329589844 -90.23300170898436 L 94.63600158691406 -89.63600158691405 L 95.23300170898438 -88.86900329589842 L 95.65899658203125 -87.93199920654295 L 95.91500091552734 -86.82399749755858 z"
     fill="none"
     stroke="rgb(255,0,0)"
     stroke-width="0.001mm"
     id="path6"
     style="stroke-width:0.1;stroke-miterlimit:4;stroke-dasharray:none" />
  <metadata
     id="metadata829">
    <rdf:RDF>
      <cc:Work
         rdf:about="">
        <dc:title>svgOutput</dc:title>
      </cc:Work>
    </rdf:RDF>
  </metadata>
  <g
     inkscape:label="Layer 1"
     id="layer1"
     transform="matrix(0.51669268,0,0,0.51669268,-25.215445,-103.85278)"
     style="stroke:#0000ff">
    <path
       d="m 153.38698,63.26852 v -2.64526 h -2.64525 -2.64526 v 2.64526 2.64525 h 2.64526 2.64525 z m 7.58307,0 v -2.64526 h -2.64526 -2.64525 v 2.64526 2.64525 h 2.64525 2.64526 z m 7.58307,0 v -2.64526 h -2.64526 -2.64526 v 2.64526 2.64525 h 2.64526 2.64526 z m -15.16614,-7.58307 v -2.64526 h -2.64525 -2.64526 v 2.64526 2.64526 h 2.64526 2.64525 z m 0,-7.58307 v -2.64525 h -2.64525 -2.64526 v 2.64525 2.64526 h 2.64526 2.64525 z m -0.0395,-7.71534 0.0487,-2.68935 h -2.64985 -2.64985 v 2.73815 2.73815 l 2.60117,-0.0488 2.60117,-0.0488 z m 0.0395,-7.62714 v -2.64526 h -2.64525 -2.64526 v 2.64526 2.64525 h 2.64526 2.64525 z"
       style="fill:#000000;fill-opacity:1;stroke:#0000ff;stroke-width:0.2;stroke-miterlimit:4;stroke-dasharray:none"
       id="path1438" />
    <path
       d="m 179.03516,63.26852 v -2.64526 h -2.64525 -2.64526 v 2.64526 2.64525 h 2.64526 2.64525 z m 15.16614,0 v -2.64526 h -2.64526 -2.64525 v 2.64526 2.64525 h 2.64525 2.64526 z m -15.16614,-7.58307 v -2.64526 h -2.64525 -2.64526 v 2.64526 2.64526 h 2.64526 2.64525 z m 15.16614,0 v -2.64526 h -2.64526 -2.64525 v 2.64526 2.64526 h 2.64525 2.64526 z m -15.16614,-7.58307 v -2.64525 h -2.64525 -2.64526 v 2.64525 2.64526 h 2.64526 2.64525 z m 7.58307,0 v -2.64525 h -2.64526 -2.64525 v 2.64525 2.64526 h 2.64525 2.64526 z m 7.58307,0 v -2.64525 h -2.64526 -2.64525 v 2.64525 2.64526 h 2.64525 2.64526 z m -15.16614,-7.67125 v -2.73342 h -2.64525 -2.64526 v 2.73342 2.73344 h 2.64526 2.64525 z m 15.16614,0 v -2.73342 h -2.64526 -2.64525 v 2.73342 2.73344 h 2.64525 2.64526 z m -7.58307,-7.67123 v -2.64526 h -2.64526 -2.64525 v 2.64526 2.64526 h 2.64525 2.64526 z"
       style="fill:#000000;fill-opacity:1;stroke:#0000ff;stroke-width:0.2;stroke-miterlimit:4;stroke-dasharray:none"
       id="path1481" />
    <path
       d="m 204.68336,63.26852 v -2.64526 h -2.64525 -2.64526 v 2.64526 2.64525 h 2.64526 2.64525 z m 7.58307,0 v -2.64526 h -2.64525 -2.64526 v 2.64526 2.64525 h 2.64526 2.64525 z m -7.58307,-7.58307 v -2.64526 h -2.64525 -2.64526 v 2.64526 2.64526 h 2.64526 2.64525 z m 15.16614,0 v -2.64526 h -2.64526 -2.64525 v 2.64526 2.64526 h 2.64525 2.64526 z m -15.16614,-7.58307 v -2.64525 h -2.64525 -2.64526 v 2.64525 2.64526 h 2.64526 2.64525 z m 7.58307,0 v -2.64525 h -2.64525 -2.64526 v 2.64525 2.64526 h 2.64526 2.64525 z m -7.58307,-7.67125 v -2.73342 h -2.64525 -2.64526 v 2.73342 2.73344 h 2.64526 2.64525 z m 15.16614,0 v -2.73342 h -2.64526 -2.64525 v 2.73342 2.73344 h 2.64525 2.64526 z M 204.68336,32.7599 v -2.64526 h -2.64525 -2.64526 v 2.64526 2.64526 h 2.64526 2.64525 z m 7.58307,0 v -2.64526 h -2.64525 -2.64526 v 2.64526 2.64526 h 2.64526 2.64525 z"
       style="fill:#000000;fill-opacity:1;stroke:#0000ff;stroke-width:0.2;stroke-miterlimit:4;stroke-dasharray:none"
       id="path1597" />
    <path
       d="m 102.09051,63.268515 v -2.64525 h -2.733444 -2.73343 v 2.64525 2.64526 h 2.73343 2.733444 z m 7.58311,0 v -2.64525 h -2.64527 -2.64528 v 2.64525 2.64526 h 2.64528 2.64527 z m 7.58308,0 v -2.64525 h -2.64526 -2.64526 v 2.64525 2.64526 h 2.64526 2.64526 z m -22.749271,-7.58307 v -2.64525 h -2.733431 -2.733431 v 2.64525 2.64526 h 2.733431 2.733431 z m 30.332341,0 v -2.64525 h -2.64526 -2.64526 v 2.64525 2.64526 h 2.64526 2.64526 z m -30.371713,-7.62716 0.0488,-2.60117 h -2.738144 -2.738149 v 2.64985 2.64985 l 2.689344,-0.0487 2.689344,-0.0487 z m 30.371713,0.0441 v -2.64526 h -2.64526 -2.64526 v 2.64526 2.64525 h 2.64526 2.64526 z m -30.420516,-7.67125 v -2.64525 l -2.689344,-0.0487 -2.689343,-0.0487 v 2.74261 2.74262 l 2.689343,-0.0487 2.689344,-0.0487 z m 30.420516,0 v -2.73343 h -2.64526 -2.64526 v 2.73343 2.73344 h 2.64526 2.64526 z m -22.74926,-7.67124 v -2.64526 h -2.733444 -2.73343 v 2.64526 2.64526 h 2.73343 2.733444 z m 7.58311,0 v -2.64526 h -2.64527 -2.64528 v 2.64526 2.64526 h 2.64528 2.64527 z m 7.58308,0 v -2.64526 h -2.64526 -2.64526 v 2.64526 2.64526 h 2.64526 2.64526 z"
       style="fill:#000000;fill-opacity:1;stroke:#0000ff;stroke-width:0.2;stroke-miterlimit:4;stroke-dasharray:none"
       id="path1614" />
    <path
       d="m 135.32185,48.014206 v -2.64526 h -2.64527 -2.64528 v 2.64526 2.645258 h 2.64528 2.64527 z m 7.58308,0 v -2.64526 h -2.64526 -2.64526 v 2.64526 2.645258 h 2.64526 2.64526 z"
       style="fill:#000000;fill-opacity:1;stroke:#0000ff;stroke-width:0.2;stroke-miterlimit:4;stroke-dasharray:none"
       id="path1614-9"
       sodipodi:nodetypes="cccccccccccccccccc" />
    <path
       d="m 61.099824,63.268515 v -2.64526 h -2.645257 -2.645256 v 2.64526 2.64526 h 2.645255 2.645258 z m 22.749203,0 v -2.64526 h -2.645256 -2.645254 v 2.64526 2.64526 h 2.645254 2.645256 z m -22.749203,-7.58307 v -2.64525 h -2.645257 -2.645256 v 2.64525 2.64526 h 2.645255 2.645258 z m 15.166134,0 v -2.64525 h -2.645254 -2.645259 v 2.64525 2.64526 h 2.645259 2.645254 z m -15.166134,-7.58307 v -2.64525 h -2.645257 -2.645256 v 2.64525 2.64526 h 2.645255 2.645258 z m 7.583067,0 v -2.64525 h -2.645258 -2.645256 v 2.64525 2.64526 h 2.645256 2.645258 z m -7.583067,-7.67124 v -2.73343 h -2.645257 -2.645256 v 2.73343 2.73343 h 2.645255 2.645258 z m 15.166134,0 v -2.73343 h -2.645254 -2.645259 v 2.73343 2.73343 h 2.645259 2.645254 z m -15.166134,-7.67124 v -2.64526 h -2.645257 -2.645256 v 2.64526 2.64526 h 2.645255 2.645258 z m 22.749203,0 v -2.64526 h -2.645256 -2.645254 v 2.64526 2.64526 h 2.645254 2.645256 z"
       style="fill:#000000;fill-opacity:1;stroke:#0000ff;stroke-width:0.2;stroke-miterlimit:4;stroke-dasharray:none"
       id="path1649" />
  </g>
</svg>
